<svg width="259" height="262" viewBox="0 0 259 262" fill="none" xmlns="http://www.w3.org/2000/svg">
<path d="M188.131 0H189.373C186.27 2.37853 177.094 7.23103 173.386 9.31865C165.16 13.939 157.04 18.7446 149.032 23.7318C102.512 52.4757 57.6889 88.5182 28.0254 135.122C21.8401 144.839 23.0414 152.836 35.6579 155.119C38.2349 155.698 54.6609 156.27 56.5334 155.391C56.8451 155.45 57.2424 155.515 57.5601 155.503C102.079 153.8 145.017 141.851 182.294 117.09C186.605 114.241 190.798 111.218 194.864 108.03C196.185 107.01 198.768 105.111 199.847 104.016C207.644 103.751 215.436 103.342 223.218 102.788C221.885 105.249 220.125 107.663 218.479 109.93C186.38 154.127 131.823 174.832 79.0754 180.092C51.5726 182.834 -1.85324 187.514 0.0494971 145.933C0.80427 129.439 12.1705 114.592 22.4837 102.606C42.3739 79.655 65.4599 59.6818 91.0331 43.2993C106.08 33.7288 121.847 25.3405 138.191 18.2101C149.669 13.299 161.363 8.9111 173.238 5.05995C175.791 4.2545 186.796 1.35864 188.131 0Z" fill="#2C3263"/>
<path d="M35.6582 155.116C38.5965 149.335 43.9332 142.749 48.2787 137.951C65.5157 118.916 87.6147 105.629 111.261 95.9877C122.322 91.5402 133.681 87.8749 145.255 85.0194C171.783 78.4899 213.576 72.6407 239.75 82.9192C246.492 85.5807 253.594 90.5402 256.239 97.6049C263.369 116.657 250.062 136.063 239.154 150.335C206.671 192.834 159.076 222.679 110.779 244.024C102.108 247.788 93.3047 251.239 84.386 254.372C77.2372 256.879 71.1172 258.732 63.9712 261.562C66.605 259.559 71.1622 257.649 74.2687 255.922C84.1752 250.414 94.1519 245.037 103.82 239.085C147.775 212.026 190.805 179.035 221.411 137.005C225.901 130.311 231.636 123.403 233.955 115.593C235.387 110.772 233.165 103.634 227.586 102.726C226.148 102.491 224.452 101.954 223.219 102.785C215.436 103.339 207.645 103.748 199.847 104.013C179.209 105.535 159.268 107.541 139.102 112.575C109.023 120.084 80.0877 135.279 56.5337 155.388C54.6612 156.266 38.2352 155.695 35.6582 155.116Z" fill="#0E4FA1"/>
</svg>
